<svg xmlns="http://www.w3.org/2000/svg" version="1.1" xmlns:xlink="http://www.w3.org/1999/xlink" xmlns:svgjs="http://svgjs.dev/svgjs" width="100%" height="100%" viewBox="0 0 1000 600"><rect width="1000" height="600" x="0" y="0" fill="#072c50"/><g><circle r="166.66666666666666" cx="349.30919901529944" cy="366.7052251475118" fill="#b88746" transform="matrix(0.7029726567206257,0,0,0.7029726567206256,-1.0077126754825803,42.21627319659166)"/><path d="M288.6267330161236 439.7764323084625L276.6682776672056 406.6607098037665L211.71279687618465 406.6607098037665L199.7543415272667 439.7764323084625L179.24989327391106 439.7764323084625L233.0777791372788 291.7052358044905L255.51101051142763 291.7052358044905L309.13118126947916 439.7764323084625L288.6267330161236 439.7764323084625ZM217.2617575467744 390.8446882132621L271.1193169966159 390.8446882132621L244.17570047845828 315.6518200888002L217.2617575467744 390.8446882132621ZM439.4575730621535 376.7497346382347Q439.4575730621535 382.29869530882445 438.8344277462049 388.50047488183645L438.8344277462049 388.50047488183645L345.24393600802307 388.50047488183645Q346.31218512107773 405.80017579602804 357.1133705975198 415.5331121594154Q367.8848824874881 425.23637493632896 383.2854738673601 425.23637493632896L383.2854738673601 425.23637493632896Q395.86707453222664 425.23637493632896 404.32404667724313 419.3610048145281Q412.7513452357858 413.4856346927271 416.16380768026613 403.6636775699186L416.16380768026613 403.6636775699186L437.1133597307279 403.6636775699186Q432.4249330678766 420.5479482734777 418.30030590637557 431.1117450581298Q404.20535233134814 441.70521542925565 383.2854738673601 441.70521542925565L383.2854738673601 441.70521542925565Q366.6089182691172 441.70521542925565 353.4635194612496 434.2274716378728Q340.3181206533819 426.7497278464898 332.84037686199895 412.9515101361998Q325.36263307061597 399.18296601238353 325.36263307061597 381.0227310904536L325.36263307061597 381.0227310904536Q325.36263307061597 362.86249616852353 332.63266175668275 349.18297280412855Q339.90269044274953 335.5034494397336 353.0480892506172 328.14439999424553Q366.19348805848483 320.78535054875755 383.2854738673601 320.78535054875755L383.2854738673601 320.78535054875755Q399.9323558791293 320.78535054875755 412.7513452357858 328.0257056483506Q425.5703345924423 335.2957343344174 432.5139538272979 348.02570293165263Q439.4575730621535 360.7259979424141 439.4575730621535 376.7497346382347L439.4575730621535 376.7497346382347ZM419.36855501943023 372.68445329133203Q419.36855501943023 361.5865319501527 414.4724132512629 353.57466360224237Q409.5465978966216 345.56279525433206 401.11929933807903 341.37881956153444Q392.66232719306254 337.2245174552105 382.42493985962165 337.2245174552105L382.42493985962165 337.2245174552105Q367.6771673821719 337.2245174552105 357.321085702836 346.6310443673867Q346.9650040235001 356.03757127956294 345.45165111333927 372.68445329133203L345.45165111333927 372.68445329133203L419.36855501943023 372.68445329133203ZM519.3685414359404 338.7081967788977L488.8047473679862 338.7081967788977L488.8047473679862 407.7289589168213Q488.8047473679862 416.2749518212589 492.45459850425647 419.80610861163416Q496.07477605405296 423.3372654020095 505.0658727555968 423.3372654020095L505.0658727555968 423.3372654020095L519.3685414359404 423.3372654020095L519.3685414359404 439.7764323084625L501.86112541643257 439.7764323084625Q485.6000000288221 439.7764323084625 477.4991109214905 432.29868851707954Q469.36854822768527 424.82094472569656 469.36854822768527 407.7289589168213L469.36854822768527 407.7289589168213L469.36854822768527 338.7081967788977L454.20534553960323 338.7081967788977L454.20534553960323 322.68446008307706L469.36854822768527 322.68446008307706L469.36854822768527 293.21858871465133L488.8047473679862 293.21858871465133L488.8047473679862 322.68446008307706L519.3685414359404 322.68446008307706L519.3685414359404 338.7081967788977Z " fill="#072c50" transform="matrix(0.7029726567206257,0,0,0.7029726567206256,-1.0077126754825803,42.21627319659166)"/><path d="M701.830998899025 439.8973326908724L690.6220251586124 408.8570977174221L629.7375499284308 408.8570977174221L618.5285761880182 439.8973326908724L599.3092192286507 439.8973326908724L649.7635079758181 301.1063178902301L670.7907639255748 301.1063178902301L721.0503558583924 439.8973326908724L701.830998899025 439.8973326908724ZM634.9387362546272 394.0323259962313L685.4208388324159 394.0323259962313L660.165880628211 323.55207920167663L634.9387362546272 394.0323259962313ZM843.2086999474548 380.82075645108Q843.2086999474548 386.0219427772763 842.624609504406 391.83503337714296L842.624609504406 391.83503337714296L754.8997877246012 391.83503337714296Q755.9010856269706 408.05049662940235 766.0253199731497 417.1734330732121Q776.1217404887075 426.26855568640053 790.5571185811991 426.26855568640053L790.5571185811991 426.26855568640053Q802.3501827646605 426.26855568640053 810.2771244917512 420.761417223369Q818.1762523882207 415.25427876033746 821.3748429096784 406.04790082466366L821.3748429096784 406.04790082466366L841.0114073283664 406.04790082466366Q836.6168220901898 421.8739704482239 823.3774387144172 431.77569414943196Q810.1658691692658 441.7052316812616 790.5571185811991 441.7052316812616L790.5571185811991 441.7052316812616Q774.9257457719884 441.7052316812616 762.6042188067211 434.696146364676Q750.2826918414536 427.6870610480904 743.2736065248681 414.7536298091528Q736.2645212082825 401.84801240083664 736.2645212082825 384.8259480605574L736.2645212082825 384.8259480605574Q736.2645212082825 367.80388372027824 743.0789097105185 354.9817078038261Q749.8932982127544 342.159531887374 762.2148251780218 335.2617018932739Q774.5363521432893 328.3638718991739 790.5571185811991 328.3638718991739L790.5571185811991 328.3638718991739Q806.1606775597884 328.3638718991739 818.1762523882207 335.1504465707884Q830.1918272166531 341.96483507302435 836.7002635820539 353.89696840959266Q843.2086999474548 365.80128791553955 843.2086999474548 380.82075645108L843.2086999474548 380.82075645108ZM824.3787366167865 377.01026165595215Q824.3787366167865 366.6078890035593 819.7894545642603 359.0981547357891Q815.1723586811127 351.58842046801885 807.2732307846431 347.6666703504055Q799.3462890575524 343.7727340634135 789.7505174931794 343.7727340634135L789.7505174931794 343.7727340634135Q775.9270436743578 343.7727340634135 766.2200167874993 352.58971837038814Q756.5129899006407 361.4067026773629 755.0944845389508 377.01026165595215L755.0944845389508 377.01026165595215L824.3787366167865 377.01026165595215ZM918.1113458108074 345.1634255944821L889.4631002707952 345.1634255944821L889.4631002707952 409.8583956197915Q889.4631002707952 417.8687788387464 892.8842014372237 421.1786246826896Q896.2774887730311 424.4884705266328 904.7050794513066 424.4884705266328L904.7050794513066 424.4884705266328L918.1113458108074 424.4884705266328L918.1113458108074 439.8973326908724L901.7011857441985 439.8973326908724Q886.4592065636871 439.8973326908724 878.8660308040527 432.88824737428683Q871.245041213797 425.87916205770136 871.245041213797 409.8583956197915L871.245041213797 409.8583956197915L871.245041213797 345.1634255944821L857.0321737662763 345.1634255944821L857.0321737662763 330.1439570589416L871.245041213797 330.1439570589416L871.245041213797 302.52482325192L889.4631002707952 302.52482325192L889.4631002707952 330.1439570589416L918.1113458108074 330.1439570589416L918.1113458108074 345.1634255944821ZM994.5993800195782 328.14136125420293Q1007.0321623073312 328.14136125420293 1017.0451413310248 333.45380290288483Q1027.0581203547185 338.76624455156673 1032.7599556320995 349.3911278489305Q1038.4617909094807 359.9881973156729 1038.4617909094807 375.202362665563L1038.4617909094807 375.202362665563L1038.4617909094807 439.8973326908724L1020.4384286668321 439.8973326908724L1020.4384286668321 377.8168627439719Q1020.4384286668321 361.4067026773629 1012.2333486335276 352.6731598622523Q1004.0282686002231 343.96743087776315 989.8154011527024 343.96743087776315L989.8154011527024 343.96743087776315Q975.3800230602108 343.96743087776315 966.8689908900712 352.9791119990874Q958.3579587199315 361.9907931204117 958.3579587199315 379.2075542750405L958.3579587199315 379.2075542750405L958.3579587199315 439.8973326908724L940.1398996629334 439.8973326908724L940.1398996629334 291.7052431402066L958.3579587199315 291.7052431402066L958.3579587199315 345.7753298681522Q963.7816556910989 337.37555302049816 973.2939857636079 332.75845713735055Q982.8063158361168 328.14136125420293 994.5993800195782 328.14136125420293L994.5993800195782 328.14136125420293ZM1168.435821403148 380.82075645108Q1168.435821403148 386.0219427772763 1167.823917129478 391.83503337714296L1167.823917129478 391.83503337714296L1080.1269091802947 391.83503337714296Q1081.1282070826642 408.05049662940235 1091.2246275982218 417.1734330732121Q1101.3488619444008 426.26855568640053 1115.756426206271 426.26855568640053L1115.756426206271 426.26855568640053Q1127.577304220354 426.26855568640053 1135.5042459474448 420.761417223369Q1143.4033738439143 415.25427876033746 1146.6019643653717 406.04790082466366L1146.6019643653717 406.04790082466366L1166.23852878406 406.04790082466366Q1161.816129715262 421.8739704482239 1148.6045601701107 431.77569414943196Q1135.392990624959 441.7052316812616 1115.756426206271 441.7052316812616L1115.756426206271 441.7052316812616Q1100.152867227682 441.7052316812616 1087.8313402624144 434.696146364676Q1075.509813297147 427.6870610480904 1068.5007279805616 414.7536298091528Q1061.491642663976 401.84801240083664 1061.491642663976 384.8259480605574L1061.491642663976 384.8259480605574Q1061.491642663976 367.80388372027824 1068.306031166212 354.9817078038261Q1075.1204196684478 342.159531887374 1087.4419466337154 335.2617018932739Q1099.7356597683615 328.3638718991739 1115.756426206271 328.3638718991739L1115.756426206271 328.3638718991739Q1131.387799015482 328.3638718991739 1143.4033738439143 335.1504465707884Q1155.4189486723465 341.96483507302435 1161.9273850377474 353.89696840959266Q1168.435821403148 365.80128791553955 1168.435821403148 380.82075645108L1168.435821403148 380.82075645108ZM1149.6058580724798 377.01026165595215Q1149.6058580724798 366.6078890035593 1145.0165760199538 359.0981547357891Q1140.399480136806 351.58842046801885 1132.5003522403367 347.6666703504055Q1124.5734105132458 343.7727340634135 1114.977638948873 343.7727340634135L1114.977638948873 343.7727340634135Q1101.1541651300513 343.7727340634135 1091.4471382431927 352.58971837038814Q1081.7122975257128 361.4067026773629 1080.3216059946442 377.01026165595215L1080.3216059946442 377.01026165595215L1149.6058580724798 377.01026165595215ZM1210.6850301170111 347.9726224872405Q1215.4968228145083 338.5715477372171 1224.3972486133473 333.37036141102067Q1233.3254882428073 328.14136125420293 1246.1476641592594 328.14136125420293L1246.1476641592594 328.14136125420293L1246.1476641592594 346.97132458487124L1241.3358714617623 346.97132458487124Q1210.6850301170111 346.97132458487124 1210.6850301170111 380.20885217740977L1210.6850301170111 380.20885217740977L1210.6850301170111 439.8973326908724L1192.4669710600128 439.8973326908724L1192.4669710600128 330.1439570589416L1210.6850301170111 330.1439570589416L1210.6850301170111 347.9726224872405Z " fill="#b88746" transform="matrix(0.7029726567206257,0,0,0.7029726567206256,-1.0077126754825803,42.21627319659166)"/></g></svg>